<svg width="266" height="38" viewBox="0 0 266 38" fill="none" xmlns="http://www.w3.org/2000/svg">
<path d="M1.242 32.6V27.2H0V11H1.242V5.6H3.78V0.199997H16.362V5.6H6.318V11H5.022V16.4H3.78V21.8H5.022V27.2H6.318V32.6H15.12V27.2H18.9V32.6H16.362V38H3.78V32.6H1.242ZM16.362 11V5.6H18.9V11H16.362ZM42.6558 5.546V0.199997H46.4358V5.546H42.6558ZM35.1498 38V32.654H42.6558V16.508H35.1498V11.162H46.4358V32.654H53.9418V38H35.1498ZM85.2576 38V16.508H76.5096V11.162H89.0376V38H85.2576ZM70.2456 38V11.162H73.9716V16.508H76.5096V21.908H73.9716V38H70.2456ZM105.235 32.654V21.908H106.531V16.508H110.365V21.908H123.001V16.508H110.365V11.162H124.297V27.254H109.069V32.654H105.235ZM109.069 38V32.654H124.297V38H109.069ZM145.617 16.508V11.162H148.101V16.508H145.617ZM153.123 16.508V11.162H155.607V16.508H153.123ZM140.595 38V11.162H144.321V16.508H145.617V21.908H144.321V38H140.595ZM148.101 38V16.508H153.123V21.908H151.881V38H148.101ZM155.607 38V16.508H159.387V38H155.607ZM178.068 38V32.654H175.584V27.254H176.826V21.908H190.596V16.508H178.068V11.162H194.376V38H190.596V32.654H188.112V27.254H179.364V32.654H188.112V38H178.068ZM214.774 32.6V16.562H211.102V11.216H214.774V5.87H218.554V11.216H222.28V16.562H218.554V32.6H224.44V27.308H229.84V32.6H226.06V38H218.392V32.6H214.774ZM246.04 32.654V21.908H247.336V16.508H251.17V21.908H263.806V16.508H251.17V11.162H265.102V27.254H249.874V32.654H246.04ZM249.874 38V32.654H265.102V38H249.874Z" fill="#24C0C9"/>
</svg>
